<?xml version="1.0" encoding="utf-8"?>
<!-- Generator: Adobe Illustrator 27.2.0, SVG Export Plug-In . SVG Version: 6.00 Build 0)  -->
<svg version="1.1" id="Слой_1" xmlns="http://www.w3.org/2000/svg" xmlns:xlink="http://www.w3.org/1999/xlink" x="0px" y="0px"
	 viewBox="0 0 26 26" style="enable-background:new 0 0 26 26;" xml:space="preserve">
<style type="text/css">
	.st0{fill:#0075F3;}
	.st1{fill:none;stroke:#0075F3;stroke-width:1.3;stroke-linecap:round;stroke-miterlimit:10;}
</style>
<g>
	<g>
		<g>
			<path class="st0" d="M22.3,6.9c0.2,0,0.3,0.1,0.3,0.3v14.6c0,0.2-0.1,0.3-0.3,0.3H3.6c-0.2,0-0.3-0.1-0.3-0.3V7.2
				c0-0.2,0.1-0.3,0.3-0.3H22.3 M22.3,5H3.6C2.4,5,1.4,6,1.4,7.2v14.6c0,1.2,1,2.2,2.2,2.2h18.7c1.2,0,2.2-1,2.2-2.2V7.2
				C24.5,6,23.5,5,22.3,5L22.3,5z"/>
		</g>
	</g>
</g>
<g>
	<line class="st1" x1="5.3" y1="3.2" x2="7.5" y2="5.7"/>
	<line class="st1" x1="9.5" y1="3" x2="7.5" y2="5.7"/>
</g>
<g>
	<ellipse class="st0" cx="18.6" cy="18.7" rx="1" ry="1"/>
</g>
</svg>
