<?xml version="1.0" encoding="utf-8"?>
<!-- Generator: Adobe Illustrator 27.2.0, SVG Export Plug-In . SVG Version: 6.00 Build 0)  -->
<svg version="1.1" id="Слой_1" xmlns="http://www.w3.org/2000/svg" xmlns:xlink="http://www.w3.org/1999/xlink" x="0px" y="0px"
	 viewBox="0 0 26 26" style="enable-background:new 0 0 26 26;" xml:space="preserve">
<style type="text/css">
	.st0{fill:#0075F3;}
</style>
<g>
	<path class="st0" d="M24.1,11.5l-2.6-2.1v-4c0-0.5-0.4-1-1-1h-3c-0.5,0-1,0.4-1,1l-3.4-2.7c-0.4-0.3-0.9-0.3-1.3,0l-10,8.9
		c-0.3,0.3-0.4,0.7-0.3,1.1C1.6,13,2,13.2,2.4,13.2h2v9.9c0,0.5,0.4,1,1,1h6.5v-2v-3.9h2h0l0,1.5v4.4h6.5c0.6,0,1-0.4,1-1v-9.9h2
		c0.4,0,0.8-0.3,0.9-0.7C24.5,12.2,24.4,11.7,24.1,11.5z M19.4,11.2v10.9h-3.5v-4.9c0-0.5-0.4-1-1-1h-4c-0.6,0-1,0.4-1,1v4.9H6.4
		l0-10.9H5l7.4-6.6l6,4.8V6.9V6.3h1h0v1.4l0,0v2.6l1.2,1H19.4z"/>
</g>
</svg>
