<?xml version="1.0" encoding="utf-8"?>
<!-- Generator: Adobe Illustrator 27.2.0, SVG Export Plug-In . SVG Version: 6.00 Build 0)  -->
<svg version="1.1" id="Слой_1" xmlns="http://www.w3.org/2000/svg" xmlns:xlink="http://www.w3.org/1999/xlink" x="0px" y="0px"
	 viewBox="0 0 26 26" style="enable-background:new 0 0 26 26;" xml:space="preserve">
<style type="text/css">
	.st0{fill:#0075F3;}
</style>
<g transform="translate(0.000000,942.000000) scale(0.100000,-0.100000)">
	<g>
		<path class="st0" d="M121.9,9351.5c-7.6-0.6-15.2-1.9-22-3.7c-18.8-5.1-36.8-15.4-50.1-28.6c-2.9-2.8-3.2-3.2-3.9-4.7
			c-3.4-7.1,0.1-15.3,7.5-17.7c3.2-1,6.2-0.7,9.4,0.8c1.5,0.7,2,1.1,4.1,3.1c7.8,7.4,14.5,12.1,23.4,16.4
			c23.1,11.3,49.7,12.4,73.8,2.9c7.9-3.1,16.1-7.9,22.8-13.2c2.8-2.2,3-2.5,6.9-6c3.9-3.6,5.9-4.5,10-4.5c1.8,0,2.4,0.1,3.6,0.5
			c2.2,0.8,3.4,1.5,5.1,3.3c2.6,2.6,3.6,5.2,3.6,8.8c0,2.3-0.4,3.9-1.5,6.1c-1.4,2.8-9.7,10.2-17.2,15.5
			c-16.4,11.7-34.8,18.5-55.6,20.8C138.7,9351.6,125.3,9351.8,121.9,9351.5z"/>
	</g>
	<g>
		<path class="st0" d="M124.2,9305.9c-14.7-1.4-27.8-6.8-38.9-16.1c-3-2.5-6-5.5-6.7-6.9c-4-7-0.6-15.8,7-18.3
			c1.5-0.5,1.9-0.5,4-0.5c2.1,0,2.5,0.1,3.8,0.5c2.1,0.7,3.3,1.5,5.6,3.7c7.6,7.1,16.6,11.2,26.6,12.3c3.1,0.3,9.6,0.1,12.5-0.4
			c7.3-1.3,13.8-4.1,19.5-8.3c1-0.7,3-2.4,4.3-3.6c3.5-3.2,5.4-4.1,8.9-4.3c5.1-0.3,9.7,2.4,12,7c0.9,1.7,1.3,3.6,1.3,5.6
			c0,2.1-0.4,3.6-1.4,5.7c-0.7,1.4-1.1,1.9-3.1,3.9c-10.7,10.6-24.6,17.2-40.5,19.4C136.5,9306,126.7,9306.1,124.2,9305.9z"/>
	</g>
	<g>
		<path class="st0" d="M128.2,9255.2c-5.1-0.7-9.5-3.9-11.8-8.4c-3.5-7-1.2-15.7,5.3-19.9c2.8-1.8,5-2.5,8.5-2.5
			c3,0,4.6,0.4,7.1,1.7c3.9,2,6.5,5.2,7.8,9.6c0.7,2.2,0.7,5.7,0.1,8c-1.2,4.5-4.4,8.3-8.6,10.2
			C134.2,9255.1,130.8,9255.6,128.2,9255.2z"/>
	</g>
</g>
</svg>
