<?xml version="1.0" encoding="utf-8"?>
<!-- Generator: Adobe Illustrator 27.2.0, SVG Export Plug-In . SVG Version: 6.00 Build 0)  -->
<svg version="1.1" id="Слой_1" xmlns="http://www.w3.org/2000/svg" xmlns:xlink="http://www.w3.org/1999/xlink" x="0px" y="0px"
	 viewBox="0 0 26 26" style="enable-background:new 0 0 26 26;" xml:space="preserve">
<style type="text/css">
	.st0{fill:#0075F3;}
</style>
<path class="st0" d="M13.6,2.9l8.5,4.8c0.5,0.3,0.8,0.8,0.8,1.3v1.4c0,0.7-0.6,1.2-1.2,1.2h-0.8v10h1c0.6,0,1,0.4,1,1s-0.4,1-1,1
	h-18c-0.6,0-1-0.4-1-1s0.4-1,1-1h1v-10H4.2c-0.7,0-1.3-0.6-1.3-1.2V9c0-0.5,0.3-1,0.7-1.3l8.6-4.8C12.7,2.7,13.2,2.7,13.6,2.9
	L13.6,2.9z M18.9,11.7h-12v10h3v-8h2v8h2v-8h2v8h3V11.7z M12.9,4.8l-8,4.5v0.4h16V9.3L12.9,4.8z M12.9,6.7c0.6,0,1,0.4,1,1
	s-0.4,1-1,1s-1-0.4-1-1S12.4,6.7,12.9,6.7z"/>
</svg>
