<?xml version="1.0" encoding="utf-8"?>
<!-- Generator: Adobe Illustrator 27.2.0, SVG Export Plug-In . SVG Version: 6.00 Build 0)  -->
<svg version="1.1" id="Слой_1" xmlns="http://www.w3.org/2000/svg" xmlns:xlink="http://www.w3.org/1999/xlink" x="0px" y="0px"
	 viewBox="0 0 26 26" style="enable-background:new 0 0 26 26;" xml:space="preserve">
<style type="text/css">
	.st0{fill:#0075F3;}
</style>
<g>
	<g>
		<path class="st0" d="M9.7,12.3c1,0,1.9-0.4,2.6-1.2c0.6-0.7,0.9-1.6,0.8-2.5c-0.1-0.9-0.5-1.7-1.2-2.3c-1.3-1.2-5.6-1.6-7.2-1.7
			c0.2,1,1,5.5,2.7,6.9C8.1,12,8.9,12.3,9.7,12.3z M10.7,7.8c0.6,0.5,0.7,1.4,0.1,2c-0.5,0.6-1.4,0.6-2,0.1c-0.5-0.4-1-1.8-1.4-3
			C8.9,7.2,10.3,7.5,10.7,7.8z"/>
	</g>
	<g>
		<path class="st0" d="M13.8,10.7c0.6,0.4,1.4,0.7,2.1,0.7c1,0,2-0.4,2.7-1.1C20,8.9,20.8,4.2,21,2.4c-1,0.2-6.1,0.8-7.8,2.6
			c-0.7,0.7-1.1,1.7-1.1,2.7c0,0.5,0.1,1,0.3,1.5c-0.6,0.9-1,1.8-1,2.8V16h-5c-0.3,0-0.6,0.2-0.8,0.4c-0.2,0.3-0.2,0.6-0.1,0.9l2,6
			C7.7,23.7,8,24,8.5,24h8c0.4,0,0.8-0.3,0.9-0.7l2-6c0.1-0.3,0.1-0.6-0.1-0.9c-0.2-0.3-0.5-0.4-0.8-0.4h-5v-4.1
			C13.5,11.5,13.6,11.1,13.8,10.7z M15.8,22H9.2l-1.3-4h9.2L15.8,22z M14.6,6.3c0.6-0.6,2.3-1.1,3.9-1.5c-0.4,1.8-0.9,3.6-1.4,4
			c-0.7,0.7-1.8,0.7-2.5,0C14,8.2,13.9,7.1,14.6,6.3z"/>
	</g>
</g>
</svg>
