<?xml version="1.0" encoding="utf-8"?>
<!-- Generator: Adobe Illustrator 27.2.0, SVG Export Plug-In . SVG Version: 6.00 Build 0)  -->
<svg version="1.1" id="Слой_1" xmlns="http://www.w3.org/2000/svg" xmlns:xlink="http://www.w3.org/1999/xlink" x="0px" y="0px"
	 viewBox="0 0 50 30" style="enable-background:new 0 0 50 30;" xml:space="preserve">
<style type="text/css">
	.st0{fill-rule:evenodd;clip-rule:evenodd;fill:#003161;}
	.st1{fill:#F06421;}
	.st2{fill:#E41A24;}
	.st3{fill:#F79C1B;}
</style>
<g>
	<g>
		<g>
			<path class="st0" d="M46,0c2,0,3,1,3,3v24c0,2-1,3-3,3H3.9c-1,0-1.7-0.3-2.2-0.8c-0.6-0.5-0.8-1.3-0.8-2.1V3c0-2,1-3,3.1-3H46
				L46,0z"/>
		</g>
	</g>
	<g id="XMLID_35_">
		<rect id="XMLID_49_" x="21.5" y="8.9" class="st1" width="6.8" height="12.2"/>
		<path id="XMLID_48_" class="st2" d="M21.9,15c0-2.5,1.2-4.7,3-6.1c-1.3-1-3-1.7-4.8-1.7c-4.3,0-7.7,3.5-7.7,7.7
			c0,4.3,3.5,7.7,7.7,7.7c1.8,0,3.5-0.6,4.8-1.7C23.1,19.7,21.9,17.5,21.9,15"/>
		<path id="XMLID_37_" class="st3" d="M37.4,15c0,4.3-3.5,7.7-7.7,7.7c-1.8,0-3.5-0.6-4.8-1.7c1.8-1.4,3-3.6,3-6.1s-1.2-4.7-3-6.1
			c1.3-1,3-1.7,4.8-1.7C34,7.3,37.4,10.7,37.4,15 M36.7,19.8v-0.2h0.1v-0.1h-0.3v0.1h0.1L36.7,19.8L36.7,19.8z M37.2,19.8v-0.3h-0.1
			L37,19.7l-0.1-0.2h-0.1v0.3h0.1v-0.2l0.1,0.2H37l0.1-0.2L37.2,19.8L37.2,19.8z"/>
	</g>
</g>
</svg>
