<?xml version="1.0" encoding="utf-8"?>
<!-- Generator: Adobe Illustrator 27.2.0, SVG Export Plug-In . SVG Version: 6.00 Build 0)  -->
<svg version="1.1" id="Слой_1" xmlns="http://www.w3.org/2000/svg" xmlns:xlink="http://www.w3.org/1999/xlink" x="0px" y="0px"
	 viewBox="0 0 46 33" style="enable-background:new 0 0 46 33;" xml:space="preserve">
<style type="text/css">
	.st0{fill-rule:evenodd;clip-rule:evenodd;fill:#0E72ED;}
</style>
<g>
	<rect x="9.8" y="7.8" class="st0" width="4" height="18.2"/>
	<path class="st0" d="M26.4,16.1c0,1.1-0.3,1.9-0.8,2.3c-0.5,0.4-0.9,0.7-1.3,0.8c-0.3,0.1-1.4,0.2-3.2,0.1V26h-3.9V7.8h4
		c1.7,0,2.9,0.1,3.6,0.3c1.2,0.5,1.7,1.4,1.7,2.9L26.4,16.1L26.4,16.1L26.4,16.1z M22.5,15.7v-4.4c0-0.5-0.2-0.8-0.5-0.9
		c-0.2-0.1-0.5-0.1-0.9-0.1v6.4c0.5,0,0.8,0,0.9-0.1C22.3,16.5,22.5,16.2,22.5,15.7z"/>
	<path class="st0" d="M36.3,22.6c0,1.2-0.3,2.1-0.9,2.7c-0.8,0.6-2,1-3.7,1c-1.7,0-2.9-0.4-3.7-1.2c-0.6-0.6-0.9-1.3-0.9-2.1v-4.2
		h3.7V23c0,0.2,0.1,0.3,0.2,0.5c0.2,0.1,0.3,0.2,0.6,0.2c0.2,0,0.5-0.1,0.6-0.2c0.1-0.1,0.2-0.3,0.2-0.5v-2.2c0-0.5-0.1-0.9-0.3-1.2
		c-0.6-0.6-1.3-1.3-2-2.1c-1.2-1.2-1.8-1.9-2-2.1c-0.6-0.8-0.9-1.5-0.9-2.2v-2.1c0-1.2,0.3-2,1-2.6c0.8-0.6,2-1,3.7-1
		c1.5,0,2.6,0.3,3.3,1c0.6,0.6,0.9,1.3,0.9,2.3V14h-3.7v-3.4c0-0.2-0.1-0.3-0.2-0.4c-0.1-0.1-0.3-0.1-0.5-0.1
		c-0.2,0-0.4,0.1-0.5,0.1c-0.1,0.1-0.2,0.2-0.2,0.4v1.7c0,0.6,0.3,1.2,0.8,1.7c0.8,0.8,1.5,1.4,2.1,2.1c0.8,0.9,1.4,1.5,1.6,1.8
		c0.5,0.7,0.8,1.4,0.8,2.3V22.6z"/>
	<path class="st0" d="M46,8.3C40.8,4.7,23.6-2.8,10.4,1.1C1.6,3.7-1.8,10.5,0.9,15.2c1.2,2,3.2,3.6,6.2,4.7v-0.5
		c-2.9-1.3-4.5-3-4.5-5.5c0-2.6,1.5-7,11.6-9.1c14.4-3,29.3,2.8,31.6,3.8l0,0C46,8.4,46,8.4,46,8.3z"/>
	<path class="st0" d="M0,24.7c5.2,3.6,22.4,11.2,35.7,7.2c8.7-2.6,12.2-9.4,9.4-14c-1.2-2-3.2-3.6-6.2-4.7v0.5
		c2.9,1.3,4.5,3,4.5,5.5c0,2.6-1.5,7-11.6,9.1c-14.4,2.9-29.3-2.9-31.6-3.8l0,0C0,24.6,0,24.6,0,24.7z"/>
</g>
</svg>
