<?xml version="1.0" encoding="utf-8"?>
<!-- Generator: Adobe Illustrator 27.2.0, SVG Export Plug-In . SVG Version: 6.00 Build 0)  -->
<svg version="1.1" id="Слой_1" xmlns="http://www.w3.org/2000/svg" xmlns:xlink="http://www.w3.org/1999/xlink" x="0px" y="0px"
	 viewBox="0 0 33 33" style="enable-background:new 0 0 33 33;" xml:space="preserve">
<style type="text/css">
	.st0{fill-rule:evenodd;clip-rule:evenodd;fill:#0E72ED;}
</style>
<path class="st0" d="M30.3,7.4c0.9,1.4,1.6,2.9,2.1,4.6h-6.2c-1.8,0-3.2-0.2-4.8,0.8c-0.4,0.3-0.9,0.6-1.3,0.9
	c0.1,0.9,0.3,1.9,1.1,3l0.3-0.3c0.4-0.5,0.9-1,1.5-1.3c1-0.5,2.1-0.3,3.1-0.3h6.8c0.1,0.5,0.1,1.1,0.1,1.6c0,1-0.1,1.9-0.2,2.8h-6.6
	c-2.2,0-3.2,0-4.7-1.7c-0.7-0.8-1.2-1.7-1.4-2.7c-0.3-1.1-0.3-2.1,0.1-3.2c0.4-1.1,1-2.1,1.8-3c1.4-1.4,2.4-1.3,4.3-1.3H30.3
	L30.3,7.4z M0.6,12L0.6,12c0.5-1.6,1.2-3.2,2.1-4.5h9.4c1,0.1,1.5,1.1,1.5,2.1c0,1.2-0.5,2.4-1.4,2.4H0.6L0.6,12z M0.3,19.3
	L0.3,19.3C0.1,18.4,0,17.5,0,16.5c0-0.5,0-1.1,0.1-1.6h12.2c1,0,1.4,1.7,1.4,2.4c-0.1,0.7-0.6,1.9-1.5,2H0.3L0.3,19.3z M16.5,0
	L16.5,0C12.1,0,8.1,1.7,5.1,4.6h7.1c2.5,0,4.3,2.9,4.3,5.2c0,1.4-0.6,2.8-1.4,3.7c0.9,1,1.4,2.3,1.4,3.7c0,2.8-2.3,5.1-4.3,5.1H1
	C3.4,28.5,9.4,33,16.5,33c3.7,0,7.2-1.3,10-3.4h-0.3c-1.8,0-3.1,0.2-4.7-0.8c-2.7-1.7-4.5-4.9-4.5-8c0-1.1,0.3-2.3,0.7-3.3
	c0.5,1.2,1.6,2.6,2.2,3.1c-0.1,1.3,0.3,2.5,1,3.6c0.6,1,1.6,2.2,2.8,2.5c0.8,0.2,1.7,0.1,2.6,0.1h3.3c1.1-1.4,2-2.9,2.6-4.6h-5.8
	c-1.8,0-3.1,0.2-4.7-0.8c-2.7-1.7-4.5-4.9-4.5-8c0-3.5,2.3-6.6,4.5-8c1.6-1,3-0.8,4.8-0.8h1.7C24.9,1.7,20.9,0,16.5,0z"/>
</svg>
