<?xml version="1.0" encoding="utf-8"?>
<!-- Generator: Adobe Illustrator 27.2.0, SVG Export Plug-In . SVG Version: 6.00 Build 0)  -->
<svg version="1.1" id="Слой_1" xmlns="http://www.w3.org/2000/svg" xmlns:xlink="http://www.w3.org/1999/xlink" x="0px" y="0px"
	 viewBox="0 0 50 30" style="enable-background:new 0 0 50 30;" xml:space="preserve">
<style type="text/css">
	.st0{fill-rule:evenodd;clip-rule:evenodd;fill:#005182;}
	.st1{fill-rule:evenodd;clip-rule:evenodd;fill:#FFFFFF;}
</style>
<g>
	<g>
		<path class="st0" d="M46,0c2,0,3,1,3,3v24c0,2-1,3-3,3H4c-0.9,0-1.7-0.3-2.2-0.8C1.3,28.5,1,27.8,1,26.9V3c0-2,1-3,3-3H46L46,0z"
			/>
	</g>
	<g>
		<path class="st1" d="M18.1,11c0,0.2,0,0.4-0.1,0.6l-3.3,5.7l-0.2-6.9H9.3l1.7,0.8c0.5,0.3,0.8,0.7,0.8,1.2l0.5,7.3h2.5l6.1-9.4
			h-3.1C18,10.5,18.1,10.8,18.1,11L18.1,11z"/>
		<path class="st1" d="M39.2,10.6l0.2-0.3h-3.2c0.1,0.1,0.1,0.2,0.1,0.2c0,0.1-0.1,0.2-0.1,0.4l-4.6,8.4c-0.1,0.1-0.2,0.3-0.4,0.4
			h2.6l-0.1-0.3c0-0.2,0.1-0.7,0.4-1.3l0.6-1h2.7c0.1,0.9,0.2,1.6,0.2,2.1l-0.2,0.5h3.3l-0.5-0.7L39.2,10.6L39.2,10.6z M37.3,15.8
			h-1.9l1.7-3.2L37.3,15.8L37.3,15.8z"/>
		<path class="st1" d="M29.2,9.9c-1,0-1.9,0.3-2.6,0.8c-0.8,0.5-1.2,1.1-1.2,1.9c0,0.9,0.3,1.6,0.9,2.2L28,16c0.7,0.5,1,0.9,1,1.2
			c0,0.4-0.2,0.7-0.5,0.9c-0.3,0.2-0.7,0.4-1.1,0.4c-0.7,0-1.8-0.5-3.3-1.3v1.7c1.2,0.7,2.4,1.1,3.5,1.1c1.1,0,2-0.3,2.8-1
			c0.8-0.6,1.2-1.3,1.2-2.1c0-0.7-0.3-1.3-1-1.9l-1.7-1.2c-0.6-0.5-0.9-0.9-0.9-1.2c0-0.7,0.4-1.1,1.3-1.1c0.6,0,1.5,0.3,2.6,1
			l0.4-1.8C31.4,10.1,30.3,9.9,29.2,9.9L29.2,9.9z"/>
		<path class="st1" d="M22.3,19.8c0-0.4-0.1-0.7-0.1-1.1l2.4-7.6l0.6-0.7h-3.4c0,0.2,0.1,0.4,0.1,0.6c0,0.2,0,0.4,0,0.6L19.4,19
			l-0.5,0.8H22.3L22.3,19.8z"/>
	</g>
</g>
</svg>
