<?xml version="1.0" encoding="utf-8"?>
<!-- Generator: Adobe Illustrator 24.1.2, SVG Export Plug-In . SVG Version: 6.00 Build 0)  -->
<svg version="1.1"  xmlns="http://www.w3.org/2000/svg" xmlns:xlink="http://www.w3.org/1999/xlink" x="0px" y="0px"
	 viewBox="0 0 20 28" style="enable-background:new 0 0 20 28;" xml:space="preserve">
<style type="text/css">
	.st0{fill:#FDD500;}
</style>
<g>
	<path class="st0" d="M0,0v21.2c0,1.4,0.8,2.8,2.2,3.4L10,28l7.8-3.4c1.4-0.6,2.2-2,2.2-3.4V0H0z M19.7,21c0,1.4-0.8,2.7-2.2,3.3
		L10,27.7l-7.5-3.4c-1.4-0.6-2.2-1.9-2.2-3.3V0.3h19.4V21z"/>
	<path class="st0" d="M10,1.5C9.4,2.2,9.1,3,9.1,4C9.1,6,9.4,8,9.4,10c0,1.9-0.5,3.7-1.2,5.4c-0.2,0.5-0.5,0.9-0.7,1.4l-0.7-0.1
		c-0.7-0.1-1.1-0.8-1-1.4c0.1-0.6,0.6-1,1.2-1l0.3,0l-0.6-5C6.4,7.2,5.3,5.2,3.6,4C3.3,3.7,3,3.5,2.7,3.4V21h4.1
		c0.3,1.7,1.2,3.1,2.5,4.1c0.3,0.2,0.6,0.5,0.7,0.8c0.2-0.3,0.4-0.6,0.7-0.8c1.3-1,2.2-2.4,2.5-4.1h4.1V3.4C17,3.5,16.7,3.7,16.4,4
		c-1.7,1.3-2.8,3.2-3,5.4l-0.6,5l0.3,0c0.6,0,1.1,0.4,1.2,1c0.1,0.7-0.3,1.3-1,1.4l-0.7,0.1c-0.2-0.5-0.5-0.9-0.7-1.4
		c-0.7-1.7-1.3-3.5-1.2-5.4c0-2,0.3-4.1,0.3-6.1C10.9,3,10.6,2.2,10,1.5L10,1.5z M3.9,5.9C4.7,6.8,5.3,8,5.4,9.2l0.5,4.1
		c-0.6,0.3-1.1,0.9-1.3,1.6H3.9V5.9L3.9,5.9z M16.1,5.9v9h-0.7c-0.2-0.7-0.6-1.3-1.3-1.6l0.5-4.1C14.7,8,15.3,6.8,16.1,5.9L16.1,5.9
		z M10,14.1c0.3,1.1,0.8,2.1,1.3,3c-0.5,0.2-1,0.5-1.3,0.9c-0.3-0.4-0.8-0.7-1.3-0.9C9.2,16.2,9.7,15.2,10,14.1L10,14.1z M3.9,16.1
		h0.7c0.2,0.8,0.9,1.5,1.7,1.7L6.9,18c-0.2,0.6-0.2,1.2-0.2,1.8H3.9V16.1L3.9,16.1z M15.4,16.1h0.7v3.7h-2.7c0-0.6-0.1-1.2-0.2-1.8
		l0.6-0.1C14.5,17.6,15.2,17,15.4,16.1L15.4,16.1z M8.1,18.3c0.7,0.1,1.3,0.7,1.3,1.5H7.9C7.9,19.3,8,18.8,8.1,18.3L8.1,18.3z
		 M11.9,18.3c0.1,0.5,0.2,1,0.2,1.5h-1.5C10.6,19,11.2,18.4,11.9,18.3L11.9,18.3z M8,21h1.4v2.6C8.7,22.9,8.2,22,8,21L8,21z
		 M10.6,21H12c-0.2,1-0.7,1.9-1.4,2.6V21L10.6,21z M10.6,21"/>
</g>
</svg>
