<?xml version="1.0" encoding="utf-8"?>
<!-- Generator: Adobe Illustrator 24.1.2, SVG Export Plug-In . SVG Version: 6.00 Build 0)  -->
<svg version="1.1"  xmlns="http://www.w3.org/2000/svg" xmlns:xlink="http://www.w3.org/1999/xlink" x="0px" y="0px"
	 viewBox="0 0 28 24" style="enable-background:new 0 0 28 24;" xml:space="preserve">
<style type="text/css">
	.st0{fill:#CCCFD7;}
</style>
<g>
	<path class="st0" d="M0,23.8L0.6,19C2,19.1,3.1,18.8,4,18.2c0.8-0.6,1.4-1.5,1.7-2.6c0.3-1.1,0.4-2.3,0.2-3.7H0V0h11.3v12.4
		c0,4.1-0.9,7.1-2.8,9.2C6.6,23.7,3.7,24.4,0,23.8z"/>
	<path class="st0" d="M16.7,23.8l0.6-4.8c1.4,0.1,2.5-0.1,3.3-0.7c0.8-0.6,1.4-1.5,1.7-2.6c0.3-1.1,0.4-2.3,0.2-3.7h-5.8V0H28v12.4
		c0,4.1-0.9,7.1-2.8,9.2C23.3,23.7,20.5,24.4,16.7,23.8z"/>
</g>
</svg>
