<?xml version="1.0" encoding="utf-8"?>
<!-- Generator: Adobe Illustrator 24.1.2, SVG Export Plug-In . SVG Version: 6.00 Build 0)  -->
<svg version="1.1"  xmlns="http://www.w3.org/2000/svg" xmlns:xlink="http://www.w3.org/1999/xlink" x="0px" y="0px"
	 viewBox="0 0 34 34" style="enable-background:new 0 0 34 34;" xml:space="preserve">
<style type="text/css">
	.st0{fill-rule:evenodd;clip-rule:evenodd;fill:#D8F1FF;}
	.st1{fill:#0073F0;}
</style>
<g>
	<circle id="Oval_2_" class="st0" cx="17" cy="17" r="17"/>
	<g>
		<path class="st1" d="M21.4,18c0,0-1.4-0.7-1.6-0.8c-0.1,0-0.2-0.1-0.3-0.1c-0.2,0-0.3,0.1-0.5,0.3c-0.1,0.2-0.5,0.7-0.7,0.8
			c0,0,0,0-0.1,0c0,0-0.2-0.1-0.3-0.1c-1.4-0.6-2.5-2.1-2.7-2.4c0,0,0-0.1,0-0.1c0,0,0.1-0.1,0.1-0.1c0.1-0.1,0.2-0.2,0.2-0.3
			c0,0,0.1-0.1,0.1-0.1c0.1-0.1,0.2-0.2,0.2-0.3l0-0.1c0.1-0.3,0-0.5,0-0.6c0-0.1-0.6-1.4-0.7-1.6c-0.1-0.3-0.3-0.5-0.6-0.5
			c0,0,0,0-0.1,0c-0.1,0-0.8,0.1-1.1,0.3c-0.3,0.2-0.9,0.9-0.9,2c0,1,0.7,2,0.9,2.4c0,0,0,0,0,0.1c1.1,1.6,2.4,2.7,3.8,3.3
			c1.3,0.5,1.9,0.6,2.3,0.6c0,0,0,0,0,0c0.1,0,0.3,0,0.4,0l0.1,0c0.5,0,1.4-0.6,1.7-1.2c0.2-0.5,0.2-1,0.1-1.2
			C21.8,18.1,21.6,18.1,21.4,18z"/>
		<path class="st1" d="M17.2,7.4c-5,0-9.1,4-9.1,9c0,1.6,0.4,3.2,1.2,4.6l-1.6,4.6c0,0.1,0,0.2,0.1,0.2c0,0,0.1,0.1,0.2,0.1
			c0,0,0,0,0.1,0l4.8-1.5c1.3,0.7,2.8,1.1,4.3,1.1c5,0,9.1-4,9.1-9C26.3,11.4,22.2,7.4,17.2,7.4z M17.2,23.5c-1.4,0-2.8-0.4-4-1.2
			c0,0-0.1,0-0.1,0c0,0,0,0-0.1,0l-2.4,0.8l0.8-2.3c0-0.1,0-0.2,0-0.2c-0.9-1.2-1.4-2.7-1.4-4.2c0-3.9,3.2-7.1,7.2-7.1
			c4,0,7.2,3.2,7.2,7.1C24.4,20.3,21.1,23.5,17.2,23.5z"/>
	</g>
</g>
</svg>
