<?xml version="1.0" encoding="utf-8"?>
<!-- Generator: Adobe Illustrator 24.1.2, SVG Export Plug-In . SVG Version: 6.00 Build 0)  -->
<svg version="1.1"  xmlns="http://www.w3.org/2000/svg" xmlns:xlink="http://www.w3.org/1999/xlink" x="0px" y="0px"
	 viewBox="0 0 34 34" style="enable-background:new 0 0 34 34;" xml:space="preserve">
<style type="text/css">
	.st0{fill:#D8F1FF;}
	.st1{fill:#0073F0;}
	.st2{fill:#FFFFFF;}
</style>
<g>
	<path class="st0" d="M34,17c0,9.4-7.6,17-17,17C7.6,34,0,26.4,0,17C0,7.6,7.6,0,17,0C26.4,0,34,7.6,34,17L34,17z M34,17"/>
	<g>
		<path class="st1" d="M26,11.9L26,11.9c-0.5-1.9-2.5-3.8-4.4-4.2l0,0c-3-0.6-6.1-0.6-9.2,0l0,0c-1.9,0.4-3.9,2.4-4.4,4.2l0,0
			c-0.6,2.6-0.6,5.2,0,7.7l0,0c0.4,1.8,2.3,3.6,4.1,4.2v2c0,0.7,0.9,1.1,1.4,0.6l2.1-2.2c0.5,0,0.9,0,1.4,0c1.5,0,3.1-0.1,4.6-0.4
			l0,0c1.9-0.4,3.9-2.4,4.4-4.2l0,0C26.6,17.1,26.6,14.5,26,11.9L26,11.9z M24.3,19.3c-0.3,1.2-1.9,2.7-3.1,3
			c-1.6,0.3-3.2,0.4-4.9,0.4c0,0-0.1,0-0.1,0c-0.2,0.2-1.5,1.6-1.5,1.6l-1.6,1.7c-0.1,0.1-0.3,0-0.3-0.1v-3.4c0-0.1,0-0.1-0.1-0.1
			c0,0,0,0,0,0c-1.2-0.3-2.8-1.8-3.1-3c-0.5-2.3-0.5-4.7,0-7c0.3-1.2,1.9-2.7,3.1-3c2.8-0.5,5.7-0.5,8.5,0c1.2,0.3,2.8,1.8,3.1,3
			C24.9,14.6,24.9,17,24.3,19.3L24.3,19.3z M24.3,19.3"/>
		<path class="st1" d="M19.7,20.9c-0.2-0.1-0.4-0.1-0.5-0.2c-1.7-0.7-3.3-1.7-4.6-3.1c-0.7-0.8-1.3-1.7-1.8-2.7
			c-0.2-0.5-0.4-0.9-0.6-1.4c-0.2-0.4,0.1-0.9,0.4-1.2c0.3-0.3,0.6-0.5,1-0.7c0.3-0.1,0.6-0.1,0.8,0.2c0.4,0.5,0.9,1.1,1.2,1.7
			c0.2,0.4,0.1,0.8-0.2,1.1c-0.1,0.1-0.2,0.1-0.3,0.2c-0.1,0.1-0.1,0.1-0.2,0.2c-0.1,0.1-0.1,0.3,0,0.5c0.5,1.2,1.2,2.2,2.5,2.7
			c0.2,0.1,0.4,0.2,0.6,0.2c0.4,0,0.5-0.5,0.8-0.7c0.3-0.2,0.6-0.2,0.9,0c0.3,0.2,0.6,0.4,0.8,0.6c0.3,0.2,0.5,0.4,0.8,0.6
			c0.2,0.2,0.3,0.5,0.2,0.8c-0.2,0.5-0.6,1-1.1,1.2C20,20.8,19.9,20.8,19.7,20.9C19.5,20.8,19.9,20.8,19.7,20.9L19.7,20.9z
			 M19.7,20.9"/>
		<path class="st1" d="M17,11c2.3,0.1,4.1,1.6,4.6,3.8c0.1,0.4,0.1,0.8,0.1,1.2c0,0.2-0.1,0.3-0.3,0.3c-0.2,0-0.3-0.2-0.3-0.3
			c0-0.3,0-0.6-0.1-1c-0.2-1.7-1.6-3.1-3.3-3.4c-0.3,0-0.5-0.1-0.8-0.1c-0.2,0-0.4,0-0.4-0.2c0-0.2,0.1-0.3,0.3-0.3
			C16.9,11,17,11,17,11C19.3,11,17,11,17,11L17,11z M17,11"/>
		<path class="st1" d="M20.5,15.5c0,0,0,0.1,0,0.2c-0.1,0.2-0.4,0.3-0.5,0c0-0.1,0-0.1,0-0.2c0-0.5-0.1-1-0.3-1.4
			c-0.3-0.4-0.6-0.8-1.1-1c-0.3-0.1-0.6-0.2-0.9-0.3c-0.1,0-0.3,0-0.4-0.1c-0.2,0-0.2-0.1-0.2-0.3c0-0.1,0.1-0.3,0.3-0.2
			c0.5,0,1,0.1,1.5,0.4c0.9,0.5,1.5,1.3,1.6,2.3c0,0,0,0.1,0,0.1C20.5,15.2,20.5,15.3,20.5,15.5C20.5,15.5,20.5,15.3,20.5,15.5
			L20.5,15.5z M20.5,15.5"/>
		<path class="st1" d="M19,15.4c-0.2,0-0.3-0.1-0.3-0.3c0-0.1,0-0.2-0.1-0.4c-0.1-0.2-0.2-0.4-0.4-0.6c-0.1-0.1-0.2-0.1-0.3-0.1
			c-0.1,0-0.3,0-0.4-0.1c-0.2,0-0.2-0.2-0.2-0.3c0-0.1,0.1-0.2,0.3-0.2c0.9,0.1,1.5,0.5,1.6,1.6c0,0.1,0,0.2,0,0.2
			C19.2,15.4,19.1,15.4,19,15.4C18.9,15.4,19.1,15.4,19,15.4L19,15.4z M19,15.4"/>
	</g>
	<path class="st2" d="M19.7,20.9C19.9,20.8,19.5,20.8,19.7,20.9L19.7,20.9z M19.7,20.9"/>
	<path class="st2" d="M17,11C17,11,17,11,17,11C17.1,11,19.2,11,17,11L17,11z M17,11"/>
	<path class="st2" d="M20.5,15.5C20.5,15.3,20.5,15.5,20.5,15.5L20.5,15.5z M20.5,15.5"/>
	<path class="st2" d="M19,15.4C19.1,15.4,19.1,15.4,19,15.4C19.1,15.4,19,15.4,19,15.4C19,15.4,19,15.4,19,15.4L19,15.4z M19,15.4"
		/>
	<path class="st2" d="M19,15.4C19,15.4,19,15.4,19,15.4C19,15.4,18.9,15.4,19,15.4L19,15.4z M19,15.4"/>
	<path class="st2" d="M19.1,15.4C19.1,15.4,19.1,15.4,19.1,15.4C19.1,15.4,19.1,15.4,19.1,15.4L19.1,15.4z M19.1,15.4"/>
</g>
</svg>
