<?xml version="1.0" encoding="utf-8"?>
<!-- Generator: Adobe Illustrator 24.1.2, SVG Export Plug-In . SVG Version: 6.00 Build 0)  -->
<svg version="1.1"  xmlns="http://www.w3.org/2000/svg" xmlns:xlink="http://www.w3.org/1999/xlink" x="0px" y="0px"
	 viewBox="0 0 32 43" style="enable-background:new 0 0 32 43;" xml:space="preserve">
<style type="text/css">
	.st0{fill:#0E72ED;}
</style>
<g>
	<path class="st0" d="M31.7,9.2l-8.9-9C22.7,0.1,22.4,0,22.2,0H3.5C1.6,0,0,1.6,0,3.6v35.8c0,2,1.6,3.6,3.6,3.6h24.9
		c2,0,3.6-1.6,3.6-3.6V9.9C32,9.6,31.9,9.4,31.7,9.2z M23.1,3.1L28.9,9h-4.1c-1,0-1.8-0.8-1.8-1.8V3.1z M28.4,41.2H3.5
		c-1,0-1.8-0.8-1.8-1.8V3.6c0-1,0.8-1.8,1.8-1.8h17.8v5.4c0,2,1.6,3.6,3.6,3.6h5.3v28.7C30.2,40.4,29.4,41.2,28.4,41.2z"/>
	<path class="st0" d="M23.1,26c-0.4,0-1.3,0.1-2.6,0.3c-0.8-0.7-1.6-1.3-2.1-1.8c-0.7-0.7-1.3-1.3-1.8-2c0.8-2.5,1.2-3.9,1.2-4.6
		c0-3-1.1-3.6-2.7-3.6c-1.2,0-2.7,0.6-2.7,3.7c0,1.3,0.7,3,2.2,4.8c-0.4,1.1-0.8,2.3-1.2,3.7c-0.2,0.7-0.5,1.3-0.7,1.9
		c-0.2,0.1-0.4,0.2-0.6,0.3c-0.7,0.4-1.4,0.7-2,1c-2.8,1.4-4.7,2.3-4.7,4c0,1.3,1.4,2.1,2.7,2.1c1.7,0,4.1-2.2,6-6
		c1.9-0.8,4.2-1.3,6.1-1.7c1.5,1.2,3.1,2.3,3.9,2.3c2.2,0,2.7-1.3,2.7-2.4C26.6,26,24.2,26,23.1,26z M8,34c-0.5,0-0.9-0.2-0.9-0.3
		c0-0.6,1.9-1.5,3.7-2.4c0.1-0.1,0.2-0.1,0.4-0.2C9.8,33.1,8.5,34,8,34z M14.2,18c0-1.9,0.6-1.9,0.9-1.9c0.6,0,0.9,0,0.9,1.8
		c0,0.4-0.3,1.3-0.7,2.8C14.6,19.6,14.2,18.7,14.2,18z M14.9,27.6c0.1-0.2,0.1-0.3,0.2-0.5c0.3-1,0.6-1.9,0.9-2.7
		c0.4,0.4,0.8,0.8,1.2,1.3c0.2,0.2,0.6,0.5,1.1,1C17.2,27,16,27.3,14.9,27.6z M24,28.7c-0.2-0.1-0.8-0.4-1.5-0.9c0.3,0,0.4,0,0.5,0
		c1.3,0,1.7,0.1,1.8,0.3C24.9,28.5,24.9,28.7,24,28.7z"/>
</g>
</svg>
