<?xml version="1.0" encoding="utf-8"?>
<!-- Generator: Adobe Illustrator 24.1.2, SVG Export Plug-In . SVG Version: 6.00 Build 0)  -->
<svg version="1.1"  xmlns="http://www.w3.org/2000/svg" xmlns:xlink="http://www.w3.org/1999/xlink" x="0px" y="0px"
	 viewBox="0 0 17 21" style="enable-background:new 0 0 17 21;" xml:space="preserve">
<style type="text/css">
	.st0{fill:#0E72ED;}
</style>
<g>
	<g>
		<circle class="st0" cx="8.9" cy="8" r="2.5"/>
	</g>
	<g>
		<path class="st0" d="M8.9,0.5c-4.3,0-7.8,3.1-7.8,7c0,5,7.1,12.1,7.4,12.4l0.4,0.4l0.4-0.4c0.3-0.3,7.4-7.4,7.4-12.4
			C16.7,3.7,13.2,0.5,8.9,0.5z M8.9,18.9c-1.5-1.6-6.7-7.4-6.7-11.4c0-3.3,3-6,6.7-6s6.7,2.7,6.7,6C15.6,11.5,10.4,17.3,8.9,18.9z"
			/>
		<path class="st0" d="M8.9,20.6l-0.6-0.6C8,19.8,0.9,12.6,0.9,7.5c0-4,3.6-7.2,8-7.2s8,3.2,8,7.2c0,5.1-7.2,12.3-7.5,12.6L8.9,20.6
			z M8.9,0.8c-4.1,0-7.5,3-7.5,6.7c0,4.9,7,11.9,7.3,12.2l0.2,0.2l0.2-0.2c0.3-0.3,7.3-7.3,7.3-12.2C16.4,3.8,13,0.8,8.9,0.8z
			 M8.9,19.2L8.7,19c-1.6-1.7-6.8-7.5-6.8-11.5c0-3.5,3.1-6.3,7-6.3s7,2.8,7,6.3c0,4.1-5.2,9.9-6.8,11.5L8.9,19.2z M8.9,1.7
			c-3.6,0-6.5,2.6-6.5,5.8c0,3.8,4.7,9.2,6.5,11c1.7-1.9,6.5-7.3,6.5-11C15.4,4.3,12.5,1.7,8.9,1.7z"/>
	</g>
</g>
</svg>
