<?xml version="1.0" encoding="utf-8"?>
<!-- Generator: Adobe Illustrator 24.1.2, SVG Export Plug-In . SVG Version: 6.00 Build 0)  -->
<svg version="1.1"  xmlns="http://www.w3.org/2000/svg" xmlns:xlink="http://www.w3.org/1999/xlink" x="0px" y="0px"
	 viewBox="0 0 34 34" style="enable-background:new 0 0 34 34;" xml:space="preserve">
<style type="text/css">
	.st0{fill-rule:evenodd;clip-rule:evenodd;fill:#D8F1FF;}
	.st1{fill-rule:evenodd;clip-rule:evenodd;fill:#0073F0;}
</style>
<g id="Artboard">
	<path id="Path-3" class="st1" d="M7.6,16.2c4.5-2,7.5-3.3,9-3.9c4.3-1.8,5.2-2.1,5.8-2.1c0.1,0,0.4,0,0.6,0.2
		c0.2,0.1,0.2,0.3,0.2,0.4s0.1,0.4,0,0.6c-0.2,2.5-1.2,8.4-1.8,11.2c-0.2,1.2-0.6,1.6-1.1,1.6c-0.9,0.1-1.6-0.6-2.5-1.2
		c-1.4-0.9-2.1-1.4-3.5-2.3c-1.5-1-0.5-1.6,0.3-2.5c0.2-0.2,4.2-3.9,4.3-4.2c0,0,0-0.2-0.1-0.3c-0.1-0.1-0.2-0.1-0.3,0
		c-0.1,0-2.3,1.5-6.5,4.3c-0.6,0.4-1.2,0.6-1.7,0.6c-0.6,0-1.6-0.3-2.4-0.6c-1-0.3-1.7-0.5-1.7-1C6.5,16.8,6.9,16.5,7.6,16.2z"/>
</g>
</svg>
