<?xml version="1.0" encoding="utf-8"?>
<!-- Generator: Adobe Illustrator 24.1.2, SVG Export Plug-In . SVG Version: 6.00 Build 0)  -->
<svg version="1.1"  xmlns="http://www.w3.org/2000/svg" xmlns:xlink="http://www.w3.org/1999/xlink" x="0px" y="0px"
	 viewBox="0 0 36 36" style="enable-background:new 0 0 36 36;" xml:space="preserve">
<style type="text/css">
	.st0{fill:#0E72ED;}
	.st1{fill:none;}
	.st2{fill:#FFFFFF;}
</style>
<g>
	<circle class="st0" cx="18" cy="18" r="18"/>
</g>
<g id="ic_perm_identity_24px" transform="translate(836.000000, 544.000000)">
	<g id="Group_111_">
		<path id="Shape_237_" class="st1" d="M-828.3-536.3h20.6v20.6h-20.6V-536.3z"/>
		<path id="Shape_238_" class="st2" d="M-818-531.2c1,0,1.8,0.8,1.8,1.8c0,1-0.8,1.8-1.8,1.8s-1.8-0.8-1.8-1.8
			C-819.8-530.4-819-531.2-818-531.2L-818-531.2z M-818-523.5c2.5,0,5.2,1.3,5.2,1.8v0.9h-10.5v-0.9
			C-823.2-522.3-820.5-523.5-818-523.5L-818-523.5z M-818-532.9c-1.9,0-3.4,1.5-3.4,3.4s1.5,3.4,3.4,3.4s3.4-1.5,3.4-3.4
			S-816.1-532.9-818-532.9L-818-532.9z M-818-525.1c-2.3,0-6.9,1.1-6.9,3.4v2.6h13.7v-2.6C-811.1-524-815.7-525.1-818-525.1
			L-818-525.1z"/>
	</g>
</g>
</svg>
