<?xml version="1.0" encoding="utf-8"?>
<!-- Generator: Adobe Illustrator 24.1.2, SVG Export Plug-In . SVG Version: 6.00 Build 0)  -->
<svg version="1.1"  xmlns="http://www.w3.org/2000/svg" xmlns:xlink="http://www.w3.org/1999/xlink" x="0px" y="0px"
	 viewBox="0 0 248 64" style="enable-background:new 0 0 248 64;" xml:space="preserve">
<style type="text/css">
	.st0{fill-rule:evenodd;clip-rule:evenodd;fill:#0E72ED;}
</style>
<g>
	<rect x="15.9" y="18.2" class="st0" width="6.2" height="28.3"/>
	<path class="st0" d="M41.5,31c0,1.7-0.4,3-1.3,3.6c-0.8,0.6-1.4,1.1-2,1.3c-0.5,0.2-2.2,0.3-4.9,0.2v10.4h-6V18.2h6.1
		c2.7,0,4.5,0.2,5.5,0.5c1.8,0.7,2.7,2.2,2.7,4.5L41.5,31L41.5,31L41.5,31z M35.5,30.5v-6.8c0-0.7-0.3-1.2-0.7-1.3
		c-0.3-0.1-0.7-0.2-1.3-0.2V32c0.7,0,1.2,0,1.3-0.1C35.2,31.7,35.5,31.2,35.5,30.5z"/>
	<path class="st0" d="M56.8,41.2c0,1.9-0.4,3.2-1.4,4.1c-1.2,1-3.1,1.5-5.7,1.5c-2.6,0-4.4-0.6-5.7-1.8c-0.9-0.9-1.3-2-1.3-3.3v-6.5
		h5.7v6.6c0,0.3,0.1,0.5,0.4,0.7c0.3,0.2,0.5,0.3,0.9,0.3c0.4,0,0.7-0.1,0.9-0.3c0.2-0.2,0.3-0.4,0.3-0.7v-3.4
		c0-0.8-0.2-1.4-0.5-1.9c-1-1-2-2.1-3.1-3.2c-1.8-1.9-2.8-3-3.1-3.2c-1-1.3-1.4-2.3-1.4-3.4v-3.2c0-1.8,0.5-3.1,1.5-4
		c1.2-1,3.1-1.5,5.7-1.5c2.2,0,4,0.5,5,1.5c1,0.9,1.4,2.1,1.4,3.5v4.9h-5.7v-5.3c0-0.3-0.1-0.4-0.3-0.6c-0.2-0.2-0.4-0.2-0.7-0.2
		c-0.4,0-0.6,0.1-0.7,0.2c-0.2,0.2-0.3,0.4-0.3,0.6v2.6c0,0.9,0.4,1.8,1.3,2.7c1.2,1.2,2.2,2.2,3.2,3.3c1.3,1.3,2.2,2.3,2.5,2.9
		c0.8,1.1,1.2,2.2,1.2,3.5V41.2z"/>
	<path class="st0" d="M71.7,19c-8-5.6-34.5-17.3-55-11.2C3.3,11.8-2,22.3,2.2,29.7c1.8,3.1,4.9,5.6,9.6,7.3v-0.8
		c-4.5-2-6.9-4.7-6.9-8.6c0-4,2.3-10.9,18-14.2c22.2-4.7,45.3,4.4,48.8,5.8l0,0C71.7,19.2,71.7,19.1,71.7,19z"/>
	<path class="st0" d="M0.8,44.4c8.1,5.6,34.6,17.3,55,11.2c13.5-4,18.8-14.5,14.5-21.8c-1.8-3.1-4.9-5.6-9.6-7.3v0.8
		c4.5,2,6.9,4.7,6.9,8.6c0,4-2.3,10.9-18,14.2c-22.2,4.6-45.2-4.5-48.8-5.9l0,0C0.8,44.3,0.8,44.3,0.8,44.4z"/>
</g>
<path class="st0" d="M94.2,38.2h-3.3V22.7h3.3V38.2L94.2,38.2z M105.3,38.2h-3V28.1c0-0.4-0.2-0.6-0.5-0.6c-0.3,0-0.5,0.2-0.5,0.6
	v10.1h-3V25.6h3V26c0.4-0.3,1-0.5,1.8-0.5c0.5,0,1,0.2,1.5,0.5c0.5,0.3,0.7,0.7,0.7,1.3V38.2L105.3,38.2z M115.3,38.2h-1.9
	c-1.3,0-2.1-0.2-2.4-0.6c-0.3-0.4-0.4-1.2-0.4-2.4v-7.7h-1.3v-1.8h1.3v-2.5h3v2.5h1.6v1.8h-1.6v7.7c0,0.4,0.1,0.6,0.3,0.7
	c0.2,0.1,0.7,0.2,1.4,0.2V38.2L115.3,38.2z M126.3,32.9h-4v2.9c0,0.4,0.2,0.6,0.5,0.6c0.3,0,0.5-0.2,0.5-0.6v-2.5h3v2.6
	c0,1.7-1.2,2.5-3.5,2.5c-2.3,0-3.4-0.9-3.4-2.7v-7.5c0-1.8,1.1-2.7,3.4-2.7c2.3,0,3.5,0.8,3.5,2.5V32.9L126.3,32.9z M123.4,31v-2.9
	c0-0.4-0.2-0.6-0.5-0.6c-0.3,0-0.5,0.2-0.5,0.6V31H123.4L123.4,31z M137.5,30.8h-3v-2.7c0-0.4-0.2-0.6-0.5-0.6
	c-0.3,0-0.5,0.2-0.5,0.6v10.1h-3V25.6h3V26c0.4-0.3,1-0.5,1.8-0.5c0.6,0,1.1,0.2,1.5,0.5c0.4,0.3,0.6,0.8,0.6,1.3V30.8L137.5,30.8z
	 M144.9,32.5v5.7h-3.2V22.7h3.4c1.4,0,2.4,0.2,3,0.5c0.7,0.4,1,1.1,1,2.2v4.3c0,1-0.3,1.7-0.8,2.2C147.8,32.3,146.6,32.5,144.9,32.5
	L144.9,32.5z M145.9,29.4v-3.7c0-0.5-0.4-0.8-1.1-0.8v5.4C145.6,30.2,145.9,30,145.9,29.4L145.9,29.4z M160.2,38.2h-2.6v-0.5
	c-0.2,0.4-0.9,0.7-1.9,0.7c-1.6,0-2.4-0.7-2.4-2v-2.5c0-0.6,0.2-1.1,0.6-1.5c0.4-0.4,1.2-0.9,2.4-1.6c0.7-0.4,1-0.6,1-0.9v-1.9
	c0-0.4-0.2-0.6-0.5-0.6c-0.4,0-0.6,0.5-0.6,1.5c0,0.2,0,0.4,0,0.8c0,0.4,0,0.6,0,0.8h-2.9v-2.5c0-1.7,1.2-2.5,3.5-2.5
	c2.2,0,3.3,0.9,3.3,2.7V38.2L160.2,38.2z M157.3,35.8v-3.2c-0.7,0.2-1,0.5-1,1v2.3c0,0.4,0.2,0.6,0.5,0.6
	C157.1,36.4,157.3,36.2,157.3,35.8L157.3,35.8z M172.2,25.6l-2.3,12.5c-0.2,1.3-0.5,2-1,2.3c-0.4,0.3-1,0.4-1.7,0.4h-2.1v-1.7
	c0.8,0,1.3,0,1.4-0.1c0.2-0.1,0.3-0.3,0.3-0.7c0-0.4-0.4-2.4-1.3-6.1l-1.5-6.6h3l1.2,6.6l1-6.6H172.2L172.2,25.6z M176.2,32h3v3.6
	c0,0.4,0.2,0.5,0.6,0.5c0.4,0,0.6-0.2,0.6-0.5v-1.8c0-0.6-0.4-1.2-1.1-2c-1.4-1.4-2.3-2.3-2.6-2.8c-0.3-0.5-0.5-1-0.5-1.6v-1.7
	c0-2,1.3-3,3.8-3c2.3,0,3.4,0.9,3.4,2.7V28h-3v-2.8c0-0.3-0.2-0.5-0.5-0.5c-0.4,0-0.6,0.3-0.6,0.9l0.1,1c0,0.6,0.4,1.2,1.1,2
	c1.4,1.4,2.2,2.3,2.6,2.9c0.4,0.5,0.6,1.2,0.6,1.8v2c0,2.1-1.3,3.1-3.8,3.1c-2.4,0-3.7-0.9-3.7-2.8V32L176.2,32z M194.8,32.9h-4v2.9
	c0,0.4,0.2,0.6,0.5,0.6c0.3,0,0.5-0.2,0.5-0.6v-2.5h3v2.6c0,1.7-1.2,2.5-3.5,2.5c-2.3,0-3.4-0.9-3.4-2.7v-7.5c0-1.8,1.1-2.7,3.4-2.7
	c2.3,0,3.5,0.8,3.5,2.5V32.9L194.8,32.9z M191.8,31v-2.9c0-0.4-0.2-0.6-0.5-0.6c-0.3,0-0.5,0.2-0.5,0.6V31H191.8L191.8,31z
	 M206,30.8h-3v-2.7c0-0.4-0.2-0.6-0.5-0.6c-0.3,0-0.5,0.2-0.5,0.6v10.1h-3V25.6h3V26c0.4-0.3,1-0.5,1.8-0.5c0.6,0,1.1,0.2,1.5,0.5
	c0.4,0.3,0.6,0.8,0.6,1.3V30.8L206,30.8z M217.8,25.6l-2.2,12.6H212l-2.2-12.6h3l1,7.4l1-7.4H217.8L217.8,25.6z M224.6,24.9h-3v-2.3
	h3V24.9L224.6,24.9z M224.6,38.2h-3V25.6h3V38.2L224.6,38.2z M235.7,31.2h-3v-3.1c0-0.4-0.2-0.6-0.5-0.6c-0.3,0-0.5,0.2-0.5,0.6v7.7
	c0,0.4,0.2,0.6,0.5,0.6c0.3,0,0.5-0.2,0.5-0.6v-3h3v3.1c0,1.7-1.1,2.5-3.4,2.5c-2.3,0-3.5-0.9-3.5-2.7v-7.5c0-1.8,1.2-2.7,3.5-2.7
	c2.3,0,3.4,0.8,3.4,2.5V31.2L235.7,31.2z M246.8,32.9h-4v2.9c0,0.4,0.2,0.6,0.5,0.6c0.3,0,0.5-0.2,0.5-0.6v-2.5h3v2.6
	c0,1.7-1.2,2.5-3.5,2.5c-2.3,0-3.4-0.9-3.4-2.7v-7.5c0-1.8,1.1-2.7,3.4-2.7c2.3,0,3.5,0.8,3.5,2.5V32.9L246.8,32.9z M243.8,31v-2.9
	c0-0.4-0.2-0.6-0.5-0.6c-0.3,0-0.5,0.2-0.5,0.6V31H243.8z"/>
</svg>
