<?xml version="1.0" encoding="utf-8"?>
<!-- Generator: Adobe Illustrator 24.1.2, SVG Export Plug-In . SVG Version: 6.00 Build 0)  -->
<svg version="1.1"  xmlns="http://www.w3.org/2000/svg" xmlns:xlink="http://www.w3.org/1999/xlink" x="0px" y="0px"
	 viewBox="0 0 16 16" style="enable-background:new 0 0 16 16;" xml:space="preserve">
<style type="text/css">
	.st0{fill:#0E72ED;}
</style>
<path class="st0" d="M15.9,14.8c0-0.1-0.1-0.2-0.2-0.3l-3-3c1-1.2,1.5-2.8,1.5-4.4c0-1.4-0.4-2.8-1.2-3.9C12.2,2,11.1,1.1,9.8,0.5
	S7.1-0.1,5.7,0.1c-1.4,0.3-2.6,1-3.6,1.9c-1,1-1.7,2.3-1.9,3.6C-0.1,7.1,0,8.5,0.5,9.8C1.1,11.1,2,12.2,3.2,13
	c1.2,0.8,2.5,1.2,3.9,1.2c1.6,0,3.1-0.5,4.4-1.5l3,3c0.1,0.1,0.2,0.1,0.3,0.2c0.1,0,0.2,0.1,0.3,0.1c0.1,0,0.2,0,0.3-0.1
	c0.1,0,0.2-0.1,0.3-0.2c0.1-0.1,0.1-0.2,0.2-0.3c0-0.1,0.1-0.2,0.1-0.3C16,15,16,14.9,15.9,14.8z M7.1,12.4c-2.9,0-5.3-2.4-5.3-5.3
	s2.4-5.3,5.3-5.3s5.3,2.4,5.3,5.3S10,12.4,7.1,12.4z"/>
</svg>
